<?xml version="1.0" encoding="UTF-8" standalone="no"?>
<svg
   width="325"
   height="80"
   viewBox="0 0 325 80"
   version="1.1"
   id="svg5"
   sodipodi:docname="rrcad-logo.svg"
   inkscape:version="1.4.2 (ebf0e940d0, 2025-05-08)"
   xmlns:inkscape="http://www.inkscape.org/namespaces/inkscape"
   xmlns:sodipodi="http://sodipodi.sourceforge.net/DTD/sodipodi-0.dtd"
   xmlns="http://www.w3.org/2000/svg"
   xmlns:svg="http://www.w3.org/2000/svg">
  <defs
     id="defs5" />
  <sodipodi:namedview
     id="namedview5"
     pagecolor="#ffffff"
     bordercolor="#111111"
     borderopacity="1"
     inkscape:showpageshadow="0"
     inkscape:pageopacity="0"
     inkscape:pagecheckerboard="1"
     inkscape:deskcolor="#d1d1d1"
     inkscape:zoom="2.1555556"
     inkscape:cx="99.974227"
     inkscape:cy="38.041237"
     inkscape:window-width="1920"
     inkscape:window-height="1004"
     inkscape:window-x="0"
     inkscape:window-y="0"
     inkscape:window-maximized="1"
     inkscape:current-layer="svg5" />
  <g
     id="g5"
     transform="translate(9.999995,2.0075105)">
    <path
       d="M 2.5831939e-7,55.649925 13.80985,4.110863 h 26.542967 q 7.38281,0 10.946037,1.265625 3.563217,1.265625 5.030678,4.710937 1.476872,3.410157 0.158059,8.332032 -1.149251,4.289062 -3.815758,7.417968 -2.657098,3.09375 -6.374423,5.027344 -2.368763,1.230469 -6.136205,2.039063 2.593317,0.949218 3.639755,1.898437 0.709338,0.632813 1.805903,2.707031 1.131715,2.074219 1.392772,3.199219 l 3.695682,14.941406 h -18 l -4.28762,-15.75 Q 27.610065,36.841332 26.589357,35.927269 25.18698,34.731957 23.0073,34.731957 H 21.60105 L 15.996097,55.649925 Z M 24.210415,24.993675 h 6.71484 q 1.08984,0 4.407151,-0.703125 1.666811,-0.316406 2.999734,-1.617187 1.368074,-1.300781 1.820238,-2.988281 0.668826,-2.496094 -0.55524,-3.832032 -1.224067,-1.335937 -5.583447,-1.335937 h -6.99609 z"
       id="text1"
       style="font-weight:bold;font-size:72px;font-family:'Arial Black', Helvetica, sans-serif;fill:#e31d2b;text-rendering:geometricPrecision"
       aria-label="R" />
    <path
       d="M 5,55.649925 H 82.000007 305.00001 l -5,5 H 70.000007 l -10,10.000004 H 0 l 5,-5 h 60.000007 l 13,-10.000004 z"
       fill="#111111"
       id="path5" />
    <path
       d="m 40.632596,75.984979 9.973781,-37.222657 h 19.16992 q 5.33203,0 7.905468,0.914062 2.573437,0.914063 3.633264,3.402344 1.066631,2.462891 0.114155,6.017578 -0.830014,3.097656 -2.755827,5.357422 -1.919009,2.234375 -4.603745,3.630859 -1.710779,0.888672 -4.431708,1.472657 1.872949,0.685546 2.628707,1.371093 0.512309,0.457032 1.304268,1.955078 0.81735,1.498047 1.005891,2.310547 l 2.669106,10.791017 h -13 L 61.149268,64.609978 q -0.576074,-2.208984 -1.313256,-2.869141 -1.012824,-0.863281 -2.587044,-0.863281 h -1.01562 L 52.185326,75.984979 Z M 58.117889,53.844353 h 4.84961 q 0.78711,0 3.182938,-0.507813 1.20381,-0.228515 2.166476,-1.167968 0.988056,-0.939453 1.314619,-2.158203 0.483041,-1.802735 -0.40101,-2.767579 -0.884051,-0.964843 -4.032491,-0.964843 h -5.05273 z"
       id="text2"
       style="font-weight:bold;font-size:52px;font-family:'Arial Black', Helvetica, sans-serif;fill:#e31d2b;text-rendering:geometricPrecision"
       aria-label="R" />
    <path
       style="font-weight:bold;font-size:72px;font-family:'Arial Black', Helvetica, sans-serif;fill:none;stroke:#111111;stroke-width:6;stroke-linecap:round;stroke-linejoin:round;text-rendering:geometricPrecision"
       d="m 121.51224,34.359375 12.82662,4.21875 q -2.9794,5.871094 -7.05789,9.808594 -4.07848,3.9375 -9.11543,5.941406 -5.00179,2.003906 -11.92757,2.003906 -8.402342,0 -13.096106,-2.425781 -4.649194,-2.460937 -6.867859,-8.613281 -2.218674,-6.152344 0.35301,-15.75 Q 90.055927,16.746094 98.678005,9.890625 107.34465,3 119.78996,3 q 9.73828,0 14.23792,3.9375 4.53479,3.9375 5.05636,12.09375 l -14.90089,3.128906 q -0.10713,-2.355468 -0.6237,-3.445312 -0.84609,-1.828125 -2.51592,-2.8125 -1.66984,-0.984375 -4.06046,-0.984375 -5.41406,0 -9.46497,4.359375 -3.04633,3.234375 -4.90208,10.160156 -2.29851,8.578125 -0.55417,11.777344 1.75375,3.164062 6.46469,3.164062 4.57031,0 7.57828,-2.566406 3.04314,-2.566406 5.40722,-7.453125 z m 50.03937,12.550781 h -18.14062 l -4.77575,8.507813 H 132.35789 L 165.53884,3.878906 h 17.36718 l 5.56125,51.539063 H 171.8032 Z M 171.19794,35.765625 170.46702,17.238281 159.84247,35.765625 Z M 207.58571,3.878906 h 23.66016 q 6.99609,0 10.77647,1.898438 3.81553,1.898437 5.6766,5.449219 1.86107,3.550781 1.86441,8.261718 0.003,4.710938 -1.40968,9.984375 -2.21373,8.261719 -5.33678,12.832032 -3.07847,4.535156 -7.24728,7.628906 -4.15938,3.058594 -8.26461,4.078125 -5.61508,1.40625 -9.86898,1.40625 h -23.66016 z m 12.79831,11.671875 -7.54549,28.160157 h 3.90235 q 4.99218,0 7.39358,-1.089844 2.41081,-1.125 4.3409,-3.867188 1.9395,-2.777343 3.59743,-8.964843 2.19489,-8.191407 0.33313,-11.214844 -1.86174,-3.023438 -8.04924,-3.023438 z"
       id="text3"
       aria-label="CAD" />
    <path
       style="font-weight:bold;font-size:72px;font-family:'Arial Black', Helvetica, sans-serif;fill:none;stroke:#ffffff;stroke-width:2;stroke-linecap:round;stroke-linejoin:round;text-rendering:geometricPrecision"
       d="m 121.51224,34.359375 12.82662,4.21875 q -2.9794,5.871094 -7.05789,9.808594 -4.07848,3.9375 -9.11543,5.941406 -5.00179,2.003906 -11.92757,2.003906 -8.402342,0 -13.096106,-2.425781 -4.649194,-2.460937 -6.867859,-8.613281 -2.218674,-6.152344 0.35301,-15.75 Q 90.055927,16.746094 98.678005,9.890625 107.34465,3 119.78996,3 q 9.73828,0 14.23792,3.9375 4.53479,3.9375 5.05636,12.09375 l -14.90089,3.128906 q -0.10713,-2.355468 -0.6237,-3.445312 -0.84609,-1.828125 -2.51592,-2.8125 -1.66984,-0.984375 -4.06046,-0.984375 -5.41406,0 -9.46497,4.359375 -3.04633,3.234375 -4.90208,10.160156 -2.29851,8.578125 -0.55417,11.777344 1.75375,3.164062 6.46469,3.164062 4.57031,0 7.57828,-2.566406 3.04314,-2.566406 5.40722,-7.453125 z m 50.03937,12.550781 h -18.14062 l -4.77575,8.507813 H 132.35789 L 165.53884,3.878906 h 17.36718 l 5.56125,51.539063 H 171.8032 Z M 171.19794,35.765625 170.46702,17.238281 159.84247,35.765625 Z M 207.58571,3.878906 h 23.66016 q 6.99609,0 10.77647,1.898438 3.81553,1.898437 5.6766,5.449219 1.86107,3.550781 1.86441,8.261718 0.003,4.710938 -1.40968,9.984375 -2.21373,8.261719 -5.33678,12.832032 -3.07847,4.535156 -7.24728,7.628906 -4.15938,3.058594 -8.26461,4.078125 -5.61508,1.40625 -9.86898,1.40625 h -23.66016 z m 12.79831,11.671875 -7.54549,28.160157 h 3.90235 q 4.99218,0 7.39358,-1.089844 2.41081,-1.125 4.3409,-3.867188 1.9395,-2.777343 3.59743,-8.964843 2.19489,-8.191407 0.33313,-11.214844 -1.86174,-3.023438 -8.04924,-3.023438 z"
       id="text4"
       aria-label="CAD" />
  </g>
</svg>
